<svg height="448pt" viewBox="-16 0 448 448" width="448pt" xmlns="http://www.w3.org/2000/svg"><path d="m96 344.664062v39.335938h39.335938c-3.441407-20.128906-19.207032-35.894531-39.335938-39.335938zm0 0"/><path d="m272 208v-136c0-13.253906-10.746094-24-24-24h-64v8.144531c14.398438.632813 37.207031 4.183594 45.152344 23.855469h10.847656c8.835938 0 16 7.164062 16 16v112zm0 0"/><path d="m135.335938 224h-39.335938v39.335938c20.128906-3.441407 35.894531-19.207032 39.335938-39.335938zm0 0"/><path d="m104 64c0 4.417969-3.582031 8-8 8-33.191406 0-40 9.601562-40 24v8h160v-8c0-14.398438-6.808594-24-40-24-4.417969 0-8-3.582031-8-8v-40c0-13.253906-10.746094-24-24-24h-16c-13.253906 0-24 10.746094-24 24zm32-56c13.253906 0 24 10.746094 24 24s-10.746094 24-24 24-24-10.746094-24-24 10.746094-24 24-24zm0 0"/><path d="m144 32c0 4.417969-3.582031 8-8 8s-8-3.582031-8-8 3.582031-8 8-8 8 3.582031 8 8zm0 0"/><path d="m0 376c0 13.253906 10.746094 24 24 24h56v-16h-48c-8.835938 0-16-7.164062-16-16v-272c0-8.835938 7.164062-16 16-16h10.847656c7.945313-19.671875 30.761719-23.199219 45.152344-23.855469v-8.144531h-64c-13.253906 0-24 10.746094-24 24zm0 0"/><path d="m80 216c0-4.417969 3.582031-8 8-8h152v-112h-8v16c0 4.417969-3.582031 8-8 8h-176c-4.417969 0-8-3.582031-8-8v-16h-8v272h48zm32-72h64v16h-64zm-48 0h32v16h-32zm0 32h144v16h-144zm0 0"/><path d="m288 304c0 17.671875-14.328125 32-32 32s-32-14.328125-32-32 14.328125-32 32-32 32 14.328125 32 32zm0 0"/><path d="m96 432h320v16h-320zm0 0"/><path d="m416 279.449219c-28.957031-3.691407-51.757812-26.492188-55.449219-55.449219h-209.101562c-3.691407 28.957031-26.492188 51.757812-55.449219 55.449219v49.101562c28.957031 3.691407 51.757812 26.492188 55.449219 55.449219h209.101562c3.691407-28.957031 26.492188-51.757812 55.449219-55.449219zm-160 72.550781c-26.507812 0-48-21.492188-48-48s21.492188-48 48-48 48 21.492188 48 48c-.027344 26.5-21.5 47.972656-48 48zm0 0"/><path d="m416 344.664062c-20.128906 3.441407-35.894531 19.207032-39.335938 39.335938h39.335938zm0 0"/><path d="m96 400h320v16h-320zm0 0"/><path d="m416 224h-39.335938c3.441407 20.128906 19.207032 35.894531 39.335938 39.335938zm0 0"/></svg>