<?xml version="1.0" encoding="utf-8"?>
<!-- Generator: Adobe Illustrator 23.0.0, SVG Export Plug-In . SVG Version: 6.00 Build 0)  -->
<svg version="1.1" id="Capa_1" xmlns="http://www.w3.org/2000/svg" xmlns:xlink="http://www.w3.org/1999/xlink" x="0px" y="0px"
	 viewBox="0 0 490 490" style="enable-background:new 0 0 490 490;" xml:space="preserve">
<g>
	<path d="M285.37,276.59H443.8c8.28,0,15-6.72,15-15V103.17c0-8.28-6.72-15-15-15h-66.13v30.06c0,2.76-2.24,5-5,5H356.5
		c-2.76,0-5-2.24-5-5V88.17h-66.13c-8.28,0-15,6.72-15,15v158.42C270.37,269.87,277.09,276.59,285.37,276.59z M405.97,200.91
		c0,0,11.69-10.46,17.39-15.73c1.62-1.5,3.53-2.8,5.9-2.8c2.38,0,4.28,1.3,5.9,2.8c5.71,5.27,17.39,15.73,17.39,15.73
		c3.12,2.83,3.36,7.65,0.54,10.77c-1.51,1.66-3.58,2.51-5.66,2.51c-1.82,0-3.66-0.65-5.11-1.97c-1.36-1.23-5.44-4.92-5.44-4.92v34.1
		c0,4.21-3.41,7.63-7.63,7.63c-4.21,0-7.62-3.41-7.62-7.63v-34.1c0,0-4.08,3.69-5.44,4.92c-1.46,1.32-3.29,1.97-5.11,1.97
		c-2.08,0-4.15-0.85-5.66-2.51C402.6,208.56,402.84,203.74,405.97,200.91z M335.61,200.91c0,0,11.69-10.46,17.39-15.73
		c1.62-1.5,3.52-2.8,5.9-2.8c2.38,0,4.28,1.3,5.9,2.8c5.7,5.27,17.39,15.73,17.39,15.73c3.13,2.83,3.37,7.65,0.54,10.77
		c-1.51,1.66-3.58,2.51-5.66,2.51c-1.82,0-3.65-0.65-5.11-1.97c-1.36-1.23-5.44-4.92-5.44-4.92v34.1c0,4.21-3.41,7.63-7.62,7.63
		c-4.21,0-7.63-3.41-7.63-7.63v-34.1c0,0-4.08,3.69-5.44,4.92c-1.46,1.32-3.29,1.97-5.11,1.97c-2.08,0-4.15-0.85-5.66-2.51
		C332.24,208.56,332.49,203.74,335.61,200.91z"/>
	<path d="M486.38,341.35c2,0,3.62-1.62,3.62-3.62V318.7c0-2-1.62-3.62-3.62-3.62H241v86.75h245.38c2,0,3.62-1.62,3.62-3.62v-19.03
		c0-2-1.62-3.62-3.62-3.62h-31.9v-34.22H486.38z M396.06,375.57H273.33v-34.22h122.73V375.57z"/>
</g>
</svg>
